<svg xmlns="http://www.w3.org/2000/svg" width="720" height="420" viewBox="0 0 720 420" fill="none">
  <defs>
    <linearGradient id="sbg" x1="0" y1="0" x2="720" y2="420"><stop stop-color="#0c0e14"/><stop offset="1" stop-color="#15192a"/></linearGradient>
    <linearGradient id="sacc" x1="0" y1="0" x2="1" y2="1"><stop stop-color="#8b5cf6"/><stop offset="1" stop-color="#3b82f6"/></linearGradient>
  </defs>
  <rect width="720" height="420" rx="16" fill="url(#sbg)"/>
  <rect x="24" y="20" width="672" height="48" rx="10" fill="rgba(255,255,255,0.04)" stroke="rgba(139,92,246,0.25)"/>
  <rect x="40" y="34" width="100" height="20" rx="4" fill="url(#sacc)" opacity="0.9"/>
  <rect x="160" y="36" width="120" height="16" rx="4" fill="#2d3348"/>
  <rect x="560" y="32" width="120" height="24" rx="6" fill="rgba(139,92,246,0.35)" stroke="rgba(139,92,246,0.5)"/>
  <rect x="24" y="84" width="200" height="100" rx="12" fill="rgba(255,255,255,0.03)" stroke="rgba(255,255,255,0.06)"/>
  <text x="40" y="108" fill="#94a3b8" font-family="system-ui,sans-serif" font-size="11">Revenue</text>
  <text x="40" y="138" fill="white" font-family="system-ui,sans-serif" font-size="22" font-weight="700">₹12.4L</text>
  <path d="M40 168 L80 148 L120 158 L160 128 L200 138" stroke="url(#sacc)" stroke-width="2.5" fill="none" stroke-linecap="round"/>
  <rect x="240" y="84" width="456" height="100" rx="12" fill="rgba(255,255,255,0.03)" stroke="rgba(255,255,255,0.06)"/>
  <rect x="260" y="104" width="180" height="10" rx="3" fill="#374151"/>
  <rect x="260" y="128" width="400" height="8" rx="2" fill="#2d3348"/>
  <rect x="260" y="144" width="320" height="8" rx="2" fill="#2d3348"/>
  <rect x="260" y="160" width="360" height="8" rx="2" fill="#2d3348"/>
  <rect x="24" y="200" width="672" height="196" rx="12" fill="rgba(255,255,255,0.02)" stroke="rgba(139,92,246,0.15)"/>
  <rect x="44" y="224" width="632" height="36" rx="8" fill="#1a1f2e"/>
  <rect x="60" y="236" width="48" height="12" rx="2" fill="#4b5563"/>
  <rect x="120" y="234" width="200" height="16" rx="3" fill="#6b7280"/>
  <rect x="520" y="234" width="80" height="16" rx="8" fill="rgba(34,197,94,0.35)" stroke="#22c55e"/>
  <rect x="44" y="272" width="632" height="36" rx="8" fill="#151a28"/>
  <rect x="60" y="284" width="48" height="12" rx="2" fill="#4b5563"/>
  <rect x="120" y="282" width="180" height="16" rx="3" fill="#6b7280"/>
  <rect x="520" y="282" width="80" height="16" rx="8" fill="rgba(234,179,8,0.25)" stroke="#eab308"/>
  <rect x="44" y="320" width="632" height="36" rx="8" fill="#1a1f2e"/>
  <rect x="60" y="332" width="48" height="12" rx="2" fill="#4b5563"/>
  <rect x="120" y="330" width="220" height="16" rx="3" fill="#6b7280"/>
  <rect x="520" y="330" width="80" height="16" rx="8" fill="rgba(59,130,246,0.35)" stroke="#3b82f6"/>
</svg>
