<svg xmlns="http://www.w3.org/2000/svg" width="720" height="420" viewBox="0 0 720 420" fill="none">
  <defs>
    <linearGradient id="tbg" x1="720" y1="0" x2="0" y2="420"><stop stop-color="#0a0c12"/><stop offset="1" stop-color="#12182e"/></linearGradient>
    <linearGradient id="tacc" x1="0" y1="0" x2="1" y2="0"><stop stop-color="#6366f1"/><stop offset="1" stop-color="#22d3ee"/></linearGradient>
  </defs>
  <rect width="720" height="420" rx="16" fill="url(#tbg)"/>
  <rect x="24" y="24" width="672" height="52" rx="12" fill="rgba(255,255,255,0.04)" stroke="rgba(99,102,241,0.3)"/>
  <rect x="44" y="40" width="140" height="20" rx="4" fill="url(#tacc)" opacity="0.85"/>
  <rect x="200" y="42" width="200" height="16" rx="4" fill="#2d3348"/>
  <rect x="580" y="38" width="100" height="24" rx="8" fill="rgba(34,211,238,0.2)" stroke="rgba(34,211,238,0.5)"/>
  <rect x="24" y="92" width="672" height="300" rx="12" fill="rgba(255,255,255,0.02)" stroke="rgba(255,255,255,0.06)"/>
  <text x="48" y="124" fill="#94a3b8" font-family="system-ui,sans-serif" font-size="10" font-weight="600">TICKET</text>
  <text x="140" y="124" fill="#94a3b8" font-family="system-ui,sans-serif" font-size="10" font-weight="600">SUMMARY</text>
  <text x="420" y="124" fill="#94a3b8" font-family="system-ui,sans-serif" font-size="10" font-weight="600">STATUS</text>
  <text x="560" y="124" fill="#94a3b8" font-family="system-ui,sans-serif" font-size="10" font-weight="600">LIVE</text>
  <line x1="24" y1="136" x2="696" y2="136" stroke="rgba(255,255,255,0.06)"/>
  <g>
    <rect x="40" y="148" width="640" height="44" rx="8" fill="#161b2a"/>
    <rect x="52" y="162" width="56" height="14" rx="3" fill="#4b5563"/>
    <rect x="120" y="160" width="260" height="18" rx="3" fill="#6b7280"/>
    <rect x="420" y="162" width="72" height="16" rx="8" fill="rgba(34,197,94,0.2)" stroke="#22c55e"/>
    <circle cx="592" cy="170" r="5" fill="#22c55e"/>
  </g>
  <g>
    <rect x="40" y="204" width="640" height="44" rx="8" fill="#121726"/>
    <rect x="52" y="218" width="56" height="14" rx="3" fill="#4b5563"/>
    <rect x="120" y="216" width="220" height="18" rx="3" fill="#6b7280"/>
    <rect x="420" y="218" width="72" height="16" rx="8" fill="rgba(234,179,8,0.2)" stroke="#eab308"/>
    <circle cx="592" cy="226" r="5" fill="#eab308"/>
  </g>
  <g>
    <rect x="40" y="260" width="640" height="44" rx="8" fill="#161b2a"/>
    <rect x="52" y="274" width="56" height="14" rx="3" fill="#4b5563"/>
    <rect x="120" y="272" width="240" height="18" rx="3" fill="#6b7280"/>
    <rect x="420" y="274" width="72" height="16" rx="8" fill="rgba(59,130,246,0.2)" stroke="#3b82f6"/>
    <circle cx="592" cy="282" r="5" fill="#3b82f6"/>
  </g>
  <rect x="40" y="320" width="640" height="56" rx="10" fill="rgba(99,102,241,0.08)" stroke="rgba(99,102,241,0.25)"/>
  <rect x="56" y="338" width="120" height="10" rx="2" fill="#4b5563"/>
  <rect x="56" y="356" width="280" height="8" rx="2" fill="#374151"/>
</svg>
